<?xml version="1.0" encoding="utf-8"?><svg viewBox="0 0 72 41" xmlns="http://www.w3.org/2000/svg" xmlns:xlink="http://www.w3.org/1999/xlink"><style>:root>svg{display:none}:root>svg:target{display:block}</style><svg viewBox="0 0 6 5" id="arrowbot" xmlns="http://www.w3.org/2000/svg"><path d="m5 1.77-2 2-2-2"/></svg><svg viewBox="0 0 19 17" id="cart" xmlns="http://www.w3.org/2000/svg"><path d="M11.583 16.833a2.084 2.084 0 1 0 0-4.167 2.084 2.084 0 0 0 0 4.167Zm-7.291 0a2.083 2.083 0 1 0 0-4.166 2.083 2.083 0 0 0 0 4.166ZM17.873 2.17a1.002 1.002 0 0 0 0-2.003h-1.199c-.94 0-1.752.652-1.956 1.568l-1.305 5.878a2.004 2.004 0 0 1-1.957 1.568H3.631L2.13 3.171h9.735a1.002 1.002 0 0 0 0-2.002H2.129a2.003 2.003 0 0 0-1.944 2.49l1.503 6.008a2.003 2.003 0 0 0 1.943 1.517h7.825a4.006 4.006 0 0 0 3.912-3.137l1.306-5.877h1.199Z"/></svg><svg fill="none" viewBox="0 0 20 20" id="cart-cross" xmlns="http://www.w3.org/2000/svg"><circle cx="10" cy="10" r="9.25" fill="#fff" stroke="#CACDD8" stroke-width="1.5"/><path d="m7 7 6.5 6.5M13.5 7 7 13.5" stroke="#A2A6B0" stroke-linecap="round"/></svg><svg fill="none" viewBox="0 0 20 21" id="cart-edit" xmlns="http://www.w3.org/2000/svg"><circle cx="10" cy="10.933" r="9.25" fill="#fff" stroke="#CACDD8" stroke-width="1.5"/><path d="M6.047 15.676h.056l2.564-.233a1.23 1.23 0 0 0 .744-.351l5.534-5.534a1.18 1.18 0 0 0-.043-1.667l-1.685-1.685a1.23 1.23 0 0 0-1.636-.043l-5.534 5.535a1.23 1.23 0 0 0-.35.744l-.265 2.564a.615.615 0 0 0 .615.67Zm6.316-8.609 1.678 1.679-1.23 1.2-1.648-1.649 1.2-1.23Zm-5.473 5.48 3.462-3.438 1.66 1.66-3.444 3.444-1.844.172.166-1.839Z" fill="#A2A6B0"/></svg><svg fill="none" viewBox="0 0 25 25" id="clock" xmlns="http://www.w3.org/2000/svg"><path d="M12.5 7.25v6.125h6.125" stroke="#0156FF" stroke-width="2.3" stroke-linecap="round"/><path d="M12.5 23.85c-6.257 0-11.35-5.093-11.35-11.35S6.243 1.15 12.5 1.15 23.85 6.243 23.85 12.5 18.757 23.85 12.5 23.85Z" stroke="#0156FF" stroke-width="2.3"/></svg><svg viewBox="0 0 19 19" id="cross" xmlns="http://www.w3.org/2000/svg"><path d="m3.846 3.846 11.308 11.308M15.154 3.846 3.847 15.154"/></svg><svg viewBox="0 0 16 16" id="facebook" xmlns="http://www.w3.org/2000/svg"><path d="M15.105.277H.895a.617.617 0 0 0-.619.617v14.211c0 .342.276.618.618.618h14.211a.617.617 0 0 0 .618-.618V.895a.617.617 0 0 0-.618-.618Zm-1.784 4.508h-1.234c-.967 0-1.154.46-1.154 1.135v1.49h2.309l-.301 2.33h-2.008v5.983H8.525V9.742H6.51V7.409h2.014V5.691c0-1.995 1.218-3.082 2.998-3.082.854 0 1.586.064 1.8.093v2.083h-.002Z"/></svg><svg fill="none" viewBox="0 0 30 30" id="favorite-icon" xmlns="http://www.w3.org/2000/svg"><circle cx="15" cy="15" r="14"/><path d="m14.685 11.825.71.717.71-.717c.674-.679 1.709-1.45 2.787-1.45 1.069 0 1.91.356 2.48.903.565.544.922 1.336.922 2.332 0 1.07-.43 1.982-1.165 2.866-.755.907-1.773 1.715-2.878 2.588l-.026.02c-.937.74-1.98 1.563-2.83 2.483-.84-.912-1.873-1.728-2.802-2.462l-.05-.04h-.001c-1.106-.874-2.123-1.683-2.878-2.59C8.93 15.593 8.5 14.68 8.5 13.61c0-.995.356-1.786.922-2.331.57-.547 1.411-.903 2.48-.903 1.077 0 2.11.77 2.783 1.45Z"/></svg><svg viewBox="0 0 16 16" id="instagram" xmlns="http://www.w3.org/2000/svg"><path d="M8 5.397A2.609 2.609 0 0 0 5.396 8 2.609 2.609 0 0 0 8 10.604 2.609 2.609 0 0 0 10.603 8 2.609 2.609 0 0 0 8 5.397ZM15.808 8c0-1.078.01-2.146-.05-3.223-.061-1.25-.346-2.359-1.26-3.273-.916-.916-2.024-1.2-3.274-1.26-1.078-.06-2.146-.05-3.222-.05-1.079 0-2.147-.01-3.223.05-1.25.06-2.36.346-3.274 1.26C.59 2.42.306 3.527.245 4.777.186 5.856.196 6.924.196 8s-.01 2.146.05 3.223c.061 1.25.346 2.36 1.26 3.273.916.916 2.024 1.2 3.274 1.26 1.078.06 2.146.05 3.223.05 1.078 0 2.146.01 3.222-.05 1.25-.06 2.36-.346 3.274-1.26.916-.916 1.199-2.023 1.26-3.273.062-1.077.05-2.145.05-3.223ZM8 12.006A4 4 0 0 1 3.994 8 4 4 0 0 1 8 3.994 4 4 0 0 1 12.005 8 4 4 0 0 1 8 12.006Zm4.17-7.24a.934.934 0 1 1 0-1.871.934.934 0 1 1 0 1.87Z"/></svg><svg viewBox="0 0 30 30" id="letter-icon" xmlns="http://www.w3.org/2000/svg"><circle cx="15" cy="15" r="14"/><path d="M21.667 9.834H8.333a.833.833 0 0 0-.833.834v10c0 .46.373.833.833.833h13.334c.46 0 .833-.373.833-.834v-10a.833.833 0 0 0-.833-.833Z"/><path d="m7.5 11.084 7.5 4.584 7.5-4.584"/></svg><svg viewBox="0 0 34 41" id="logo" xmlns="http://www.w3.org/2000/svg"><path d="M17.033.945.297 10.864V23.07l16.736 9.918 13.426-7.63v3.625l-13.426 8.01L.297 26.887v4.387L17.033 41l16.736-9.727V19.065l-13.425 7.82v-3.814l13.425-8.011v-4.196L17.033.945Z"/></svg><svg fill="none" viewBox="0 0 20 24" id="mark" xmlns="http://www.w3.org/2000/svg"><path d="M10 12c-1.375 0-2.5-1.08-2.5-2.4 0-1.32 1.125-2.4 2.5-2.4s2.5 1.08 2.5 2.4c0 1.32-1.125 2.4-2.5 2.4Zm7.5-2.16c0-4.356-3.313-7.44-7.5-7.44-4.188 0-7.5 3.084-7.5 7.44 0 2.808 2.438 6.528 7.5 10.968 5.063-4.44 7.5-8.16 7.5-10.968ZM10 0c5.25 0 10 3.864 10 9.84 0 3.984-3.337 8.7-10 14.16C3.338 18.54 0 13.824 0 9.84 0 3.864 4.75 0 10 0Z" fill="#0156FF"/></svg><svg viewBox="0 0 40 40" id="message-icon" xmlns="http://www.w3.org/2000/svg"><path d="M20 0c11.267 0 20 8.253 20 19.4 0 11.147-8.733 19.4-20 19.4a21.81 21.81 0 0 1-5.79-.769 1.595 1.595 0 0 0-1.068.079l-3.97 1.752a1.6 1.6 0 0 1-2.245-1.415l-.109-3.558a1.597 1.597 0 0 0-.537-1.14C2.39 30.27 0 25.231 0 19.4 0 8.253 8.733 0 20 0ZM7.99 25.073c-.564.895.536 1.903 1.378 1.264l6.31-4.79a1.2 1.2 0 0 1 1.446-.004l4.673 3.505a3 3 0 0 0 4.338-.8l5.875-9.322c.564-.894-.536-1.902-1.378-1.263l-6.31 4.79a1.2 1.2 0 0 1-1.446.004l-4.673-3.505a3 3 0 0 0-4.338.8L7.99 25.074Z"/></svg><svg fill="none" viewBox="0 0 72 19" id="paypal" xmlns="http://www.w3.org/2000/svg"><path d="M55.693 5.045h-3.652c-.215 0-.43.211-.537.422L50 14.73c0 .21.107.316.322.316h1.934c.215 0 .322-.106.322-.316l.43-2.632c0-.21.214-.42.537-.42h1.181c2.471 0 3.867-1.159 4.19-3.475.215-.947 0-1.79-.43-2.315-.644-.527-1.611-.843-2.793-.843Zm.43 3.474c-.215 1.263-1.182 1.263-2.148 1.263h-.645l.43-2.42c0-.106.107-.211.322-.211h.215c.644 0 1.289 0 1.611.42.215.106.215.422.215.948Z" fill="#139AD6"/><path d="M27.657 4.645H23.77c-.229 0-.457.229-.571.458L21.6 15.16c0 .228.114.343.342.343h1.829c.229 0 .457-.229.572-.458l.457-2.742c0-.229.228-.458.571-.458h1.257c2.629 0 4.114-1.257 4.457-3.771.229-1.029 0-1.943-.457-2.514-.686-.572-1.6-.915-2.971-.915Zm.457 3.772c-.229 1.371-1.257 1.371-2.286 1.371h-.571l.457-2.628c0-.115.114-.229.343-.229h.228c.686 0 1.372 0 1.715.457.114.115.228.457.114 1.029ZM39.428 8.303H37.6c-.115 0-.343.114-.343.228l-.114.572-.115-.229c-.457-.571-1.257-.8-2.171-.8-2.057 0-3.886 1.6-4.229 3.771-.228 1.143.114 2.172.686 2.858.571.685 1.371.914 2.4.914 1.714 0 2.629-1.029 2.629-1.029l-.115.572c0 .228.114.343.343.343h1.714c.229 0 .458-.229.572-.458l1.028-6.4c-.114-.114-.343-.342-.457-.342ZM36.8 11.96c-.229 1.028-1.029 1.828-2.172 1.828-.571 0-1.028-.228-1.257-.457-.229-.343-.343-.8-.343-1.371.114-1.029 1.029-1.829 2.057-1.829.572 0 .915.229 1.258.457.342.343.457.915.457 1.372Z" fill="#263B80"/><path d="M67.51 8.288h-1.96c-.123 0-.368.121-.368.242l-.122.606-.123-.242c-.49-.606-1.347-.849-2.327-.849-2.206 0-4.166 1.697-4.533 4-.245 1.213.122 2.303.735 3.03.612.728 1.47.97 2.573.97 1.837 0 2.817-1.09 2.817-1.09l-.122.606c0 .242.122.363.367.363h1.838c.245 0 .49-.242.612-.485L68 8.652c-.123-.122-.245-.364-.49-.364Zm-2.818 3.879c-.245 1.09-1.102 1.94-2.327 1.94-.613 0-1.103-.243-1.348-.486-.245-.363-.368-.848-.368-1.454.123-1.091 1.103-1.94 2.206-1.94.612 0 .98.243 1.347.485.49.364.613.97.49 1.455Z" fill="#139AD6"/><path d="M49.714 8.045H47.79c-.226 0-.34.115-.453.23l-2.49 3.908-1.131-3.678c-.113-.23-.226-.345-.566-.345h-1.81c-.227 0-.34.23-.34.46l2.037 6.092-1.924 2.759c-.113.23 0 .575.227.575h1.81c.227 0 .34-.116.453-.23l6.224-9.08c.34-.346.113-.69-.113-.69Z" fill="#263B80"/><path d="M69.556 5.321 68 15.7c0 .23.111.346.333.346h1.556c.222 0 .444-.231.555-.462L72 5.437c0-.231-.111-.346-.333-.346h-1.778c-.111-.116-.222 0-.333.23Z" fill="#139AD6"/><path d="M13.064 1.398C12.269.496 10.792.045 8.747.045h-5.68c-.34 0-.681.338-.795.677L0 15.482c0 .338.227.564.454.564h3.522l.909-5.522v.226c.113-.338.454-.676.795-.676h1.704c3.294 0 5.793-1.352 6.589-5.07v-.339c-.114 0-.114 0 0 0 .113-1.465-.114-2.366-.91-3.267Z" fill="#263B80"/><path d="M13.712 4.045v.353c-.755 4-3.13 5.295-6.259 5.295H5.834c-.323 0-.647.353-.755.705L4 17.575c0 .235.108.47.432.47h2.805c.324 0 .648-.235.648-.588v-.117l.54-3.647v-.236c0-.353.323-.588.647-.588h.431c2.698 0 4.856-1.176 5.396-4.706.216-1.412.108-2.706-.54-3.53a1.137 1.137 0 0 0-.647-.588Z" fill="#139AD6"/><path d="M13 4.395c-.111 0-.222-.116-.333-.116-.111 0-.223 0-.334-.117-.444-.117-.889-.117-1.444-.117H6.556c-.112 0-.223 0-.334.117a.647.647 0 0 0-.333.583L5 10.812v.234c.111-.35.444-.7.778-.7h1.666c3.223 0 5.667-1.4 6.445-5.25 0-.117 0-.234.111-.35-.222-.117-.333-.234-.556-.234-.333-.117-.333-.117-.444-.117Z" fill="#232C65"/></svg><svg fill="none" viewBox="0 0 30 30" id="rating_icon" xmlns="http://www.w3.org/2000/svg"><circle cx="15" cy="15" r="14"/><path d="M10.379 21.088v-4.485M14.959 21.088V7.692M19.621 21.088v-8.841"/></svg><svg viewBox="0 0 17 16" id="search" xmlns="http://www.w3.org/2000/svg"><path d="M2.95 1.991a6.433 6.433 0 0 0 8.425 9.686l3.331 3.332a.892.892 0 1 0 1.262-1.262l-3.332-3.331a6.434 6.434 0 0 0-9.685-8.425Zm0 0 .071.071-.07-.07Zm7.839 1.263a4.65 4.65 0 1 1-6.523 6.63 4.65 4.65 0 0 1 6.523-6.63Z" stroke="#000" stroke-width=".2"/></svg><svg viewBox="0 0 23 16" id="view-list" xmlns="http://www.w3.org/2000/svg"><path d="M.571 13.029h9.143v2.743H.571zM.571.229h21.943v2.743H.571zM.571 6.629h16.457v2.743H.571z"/></svg><svg viewBox="0 0 20 20" id="views-blocks" xmlns="http://www.w3.org/2000/svg"><path d="M.9.9h3.571v3.571H.9zM.9 8.214h3.571v3.571H.9zM.9 15.529h3.571V19.1H.9zM8.214 8.214h3.571v3.571H8.214zM8.214 15.529h3.571V19.1H8.214zM8.214.9h3.571v3.571H8.214zM15.528 8.214h3.571v3.571h-3.571zM15.528 15.529h3.571V19.1h-3.571zM15.528.9h3.571v3.571h-3.571z"/></svg></svg>