<svg width="26" height="26" viewBox="0 0 26 26" fill="none" xmlns="http://www.w3.org/2000/svg">
<path d="M12.9121 0.860596C6.10683 0.860596 0.570312 6.39712 0.570312 13.2024V18.3156C0.570312 19.5794 1.67737 20.6074 3.03867 20.6074H4.27284C4.60017 20.6074 4.91409 20.4774 5.14554 20.246C5.37699 20.0145 5.50702 19.7006 5.50702 19.3733V13.0259C5.50702 12.6986 5.37699 12.3846 5.14554 12.1532C4.91409 11.9217 4.60017 11.7917 4.27284 11.7917H3.15221C3.83841 7.01544 7.94823 3.32895 12.9121 3.32895C17.8759 3.32895 21.9858 7.01544 22.672 11.7917H21.5513C21.224 11.7917 20.9101 11.9217 20.6786 12.1532C20.4472 12.3846 20.3172 12.6986 20.3172 13.0259V20.6074C20.3172 21.9687 19.2101 23.0758 17.8488 23.0758H15.3804V21.8416H10.4437V25.5441H17.8488C20.5714 25.5441 22.7855 23.33 22.7855 20.6074C24.1468 20.6074 25.2539 19.5794 25.2539 18.3156V13.2024C25.2539 6.39712 19.7173 0.860596 12.9121 0.860596Z" fill="white"/>
</svg>
